<svg xmlns="http://www.w3.org/2000/svg" width="256" height="256" viewBox="0 0 100 100"><rect width="100" height="100" rx="20" fill="#d4a373"></rect><path fill="#fff" d="M72.45 18.14L72.45 18.14Q72.09 21.56 71.96 24.76Q71.82 27.95 71.82 29.66L71.82 29.66Q71.82 31.82 71.91 33.71Q72.00 35.60 72.09 37.04L72.09 37.04L70.03 37.04Q69.39 30.74 68.31 27.09Q67.23 23.45 64.53 21.83Q61.84 20.21 56.16 20.21L56.16 20.21L50.50 20.21Q47.44 20.21 45.86 20.70Q44.28 21.20 43.75 22.77Q43.20 24.35 43.20 27.68L43.20 27.68L43.20 72.32Q43.20 75.56 43.88 77.18Q44.55 78.80 46.53 79.34Q48.52 79.88 52.30 80.06L52.30 80.06L52.30 81.86Q49.95 81.68 46.36 81.64Q42.75 81.59 39.06 81.59L39.06 81.59Q35.55 81.59 32.50 81.64Q29.44 81.68 27.55 81.86L27.55 81.86L27.55 80.06Q30.61 79.88 32.18 79.34Q33.76 78.80 34.30 77.18Q34.84 75.56 34.84 72.32L34.84 72.32L34.84 27.68Q34.84 24.35 34.30 22.77Q33.76 21.20 32.18 20.62Q30.61 20.03 27.55 19.94L27.55 19.94L27.55 18.14Q31.95 18.23 36.99 18.32Q42.03 18.41 46.49 18.41Q50.95 18.41 53.64 18.41L53.64 18.41Q57.78 18.41 63.05 18.37Q68.31 18.32 72.45 18.14ZM40.50 49.82L58.51 49.82Q58.51 49.82 58.51 50.72Q58.51 51.62 58.51 51.62L58.51 51.62L40.50 51.62Q40.50 51.62 40.50 50.72Q40.50 49.82 40.50 49.82L40.50 49.82ZM58.14 37.94L60.21 37.94Q59.85 43.07 59.90 45.77Q59.95 48.47 59.95 50.72L59.95 50.72Q59.95 52.97 60.03 55.67Q60.13 58.37 60.48 63.50L60.48 63.50L58.41 63.50Q58.05 60.62 57.56 57.88Q57.06 55.13 55.40 53.38Q53.73 51.62 49.77 51.62L49.77 51.62L49.77 49.82Q53.73 49.82 55.31 47.75Q56.88 45.68 57.34 42.89Q57.78 40.10 58.14 37.94L58.14 37.94Z"></path></svg>